<svg xmlns="http://www.w3.org/2000/svg" viewBox="0 0 512 512">
  <style>
    path { fill: #333333; }
    @media (prefers-color-scheme: dark) {
      path { fill: #ffffff; }
    }
  </style>
  <path d="M153.6 170.67c-5.88 0-10.67 4.78-10.67 10.66v149.34c0 5.88 4.79 10.66 10.67 10.66s10.67-4.78 10.67-10.66V181.33c0-5.88-4.79-10.66-10.67-10.66zm204.8 0c-5.88 0-10.67 4.78-10.67 10.66v149.34c0 5.88 4.79 10.66 10.67 10.66s10.67-4.78 10.67-10.66V181.33c0-5.88-4.79-10.66-10.67-10.66zM256 64C141.31 64 48 157.31 48 272s93.31 208 208 208 208-93.31 208-208S370.69 64 256 64zm0 384c-97.05 0-176-78.95-176-176S158.95 96 256 96s176 78.95 176 176-78.95 176-176 176zm-74.67-128c-5.88 0-10.66 4.79-10.66 10.67s4.78 10.66 10.66 10.66h149.34c5.88 0 10.66-4.78 10.66-10.66s-4.78-10.67-10.66-10.67H181.33z"/>
</svg>